{
  "accessors": [
    {
      "bufferView": 2,
      "componentType": 5126,
      "count": 1239,
      "max": [
        0.35249608755111694,
        1.194358229637146,
        0.4165692925453186
      ],
      "min": [
        -0.35249608755111694,
        -0.42703774571418762,
        -1.0221471786499023
      ],
      "type": "VEC3"
    },
    {
      "bufferView": 2,
      "byteOffset": 14868,
      "componentType": 5126,
      "count": 1239,
      "max": [
        0.99948155879974365,
        0.99682015180587769,
        0.99994516372680664
      ],
      "min": [
        -0.99948155879974365,
        -0.99852341413497925,
        -0.99998736381530762
      ],
      "type": "VEC3"
    },
    {
      "bufferView": 3,
      "componentType": 5126,
      "count": 1239,
      "max": [
        0.99943387508392334,
        0.99998670816421509,
        0.99804365634918213,
        1
      ],
      "min": [
        -0.99943393468856812,
        -0.99998736381530762,
        -0.99852335453033447,
        -1
      ],
      "type": "VEC4"
    },
    {
      "bufferView": 3,
      "byteOffset": 19824,
      "componentType": 5126,
      "count": 1239,
      "max": [
        1,
        1,
        1,
        1
      ],
      "min": [
        0.69411766529083252,
        0.38823530077934265,
        0.55294120311737061,
        1
      ],
      "type": "VEC4"
    },
    {
      "bufferView": 1,
      "componentType": 5126,
      "count": 1239,
      "max": [
        0.99963480234146118,
        0.96199262142181396
      ],
      "min": [
        0.069807790219783783,
        0.0089018847793340683
      ],
      "type": "VEC2"
    },
    {
      "bufferView": 0,
      "componentType": 5125,
      "count": 4824,
      "max": [
        1238
      ],
      "min": [
        0
      ],
      "type": "SCALAR"
    },
    {
      "bufferView": 2,
      "byteOffset": 29736,
      "componentType": 5126,
      "count": 1239,
      "max": [
        0.35249608755111694,
        1.2069259881973267,
        0.4256909191608429
      ],
      "min": [
        -0.35249608755111694,
        -0.43644502758979797,
        -1.031287670135498
      ],
      "type": "VEC3"
    },
    {
      "bufferView": 2,
      "byteOffset": 44604,
      "componentType": 5126,
      "count": 1239,
      "max": [
        0.99930143356323242,
        0.9977537989616394,
        0.99994528293609619
      ],
      "min": [
        -0.99930143356323242,
        -0.99683237075805664,
        -0.99994516372680664
      ],
      "type": "VEC3"
    },
    {
      "bufferView": 3,
      "byteOffset": 39648,
      "componentType": 5126,
      "count": 1239,
      "max": [
        0.99972301721572876,
        0.99983960390090942,
        0.9977537989616394,
        1
      ],
      "min": [
        -0.99972301721572876,
        -0.99657636880874634,
        -0.99683237075805664,
        -1
      ],
      "type": "VEC4"
    },
    {
      "bufferView": 3,
      "byteOffset": 59472,
      "componentType": 5126,
      "count": 1239,
      "max": [
        1,
        1,
        1,
        1
      ],
      "min": [
        0.69411766529083252,
        0.38823530077934265,
        0.55294120311737061,
        1
      ],
      "type": "VEC4"
    },
    {
      "bufferView": 1,
      "byteOffset": 9912,
      "componentType": 5126,
      "count": 1239,
      "max": [
        0.99963480234146118,
        0.96199262142181396
      ],
      "min": [
        0.069807790219783783,
        0.0089018847793340683
      ],
      "type": "VEC2"
    },
    {
      "bufferView": 0,
      "byteOffset": 19296,
      "componentType": 5125,
      "count": 4824,
      "max": [
        1238
      ],
      "min": [
        0
      ],
      "type": "SCALAR"
    }
  ],
  "asset": {
    "extras": {
      "author": "Ivyna J. Spyder (https://sketchfab.com/ivynajspyder)",
      "license": "CC-BY-4.0 (http://creativecommons.org/licenses/by/4.0/)",
      "source": "https://sketchfab.com/3d-models/baby-teeth-d00ae95a5fdd4b48a69dd21efc30bbe3",
      "title": "Baby Teeth"
    },
    "generator": "Sketchfab-7.20.0",
    "version": "2.0"
  },
  "bufferViews": [
    {
      "buffer": 0,
      "byteLength": 38592,
      "byteOffset": 0,
      "name": "floatBufferViews",
      "target": 34963
    },
    {
      "buffer": 0,
      "byteLength": 19824,
      "byteOffset": 38592,
      "byteStride": 8,
      "name": "floatBufferViews",
      "target": 34962
    },
    {
      "buffer": 0,
      "byteLength": 59472,
      "byteOffset": 58416,
      "byteStride": 12,
      "name": "floatBufferViews",
      "target": 34962
    },
    {
      "buffer": 0,
      "byteLength": 79296,
      "byteOffset": 117888,
      "byteStride": 16,
      "name": "floatBufferViews",
      "target": 34962
    }
  ],
  "buffers": [
    {
      "byteLength": 197184,
      "uri": "scene.bin"
    }
  ],
  "extensionsUsed": [
    "KHR_materials_unlit"
  ],
  "images": [
    {
      "uri": "textures/material_baseColor.png"
    }
  ],
  "materials": [
    {
      "doubleSided": true,
      "emissiveFactor": [
        0.89832329900009833,
        0.89832329900009833,
        0.89832329900009833
      ],
      "emissiveTexture": {
        "index": 0,
        "texCoord": 0
      },
      "extensions": {
        "KHR_materials_unlit": {}
      },
      "name": "material",
      "pbrMetallicRoughness": {
        "baseColorFactor": [
          0.47348012864214817,
          0.47348012864214817,
          0.47348012864214817,
          1
        ],
        "baseColorTexture": {
          "index": 0,
          "texCoord": 0
        },
        "metallicFactor": 0,
        "roughnessFactor": 1
      }
    },
    {
      "doubleSided": false,
      "emissiveFactor": [
        0,
        0,
        0
      ],
      "extensions": {
        "KHR_materials_unlit": {}
      },
      "name": "material_1",
      "pbrMetallicRoughness": {
        "baseColorFactor": [
          0,
          0,
          0,
          1
        ],
        "metallicFactor": 0,
        "roughnessFactor": 1
      }
    }
  ],
  "meshes": [
    {
      "name": "Cube_bt_0",
      "primitives": [
        {
          "attributes": {
            "COLOR_0": 3,
            "NORMAL": 1,
            "POSITION": 0,
            "TANGENT": 2,
            "TEXCOORD_0": 4
          },
          "indices": 5,
          "material": 0,
          "mode": 4
        }
      ]
    },
    {
      "name": "Cube_OL_0",
      "primitives": [
        {
          "attributes": {
            "COLOR_0": 9,
            "NORMAL": 7,
            "POSITION": 6,
            "TANGENT": 8,
            "TEXCOORD_0": 10
          },
          "indices": 11,
          "material": 1,
          "mode": 4
        }
      ]
    }
  ],
  "nodes": [
    {
      "children": [
        1
      ],
      "name": "RootNode (gltf orientation matrix)",
      "rotation": [
        -0.70710678118654746,
        -0,
        -0,
        0.70710678118654757
      ]
    },
    {
      "children": [
        2
      ],
      "name": "RootNode (model correction matrix)"
    },
    {
      "children": [
        3
      ],
      "matrix": [
        1,
        0,
        0,
        0,
        0,
        0,
        1,
        0,
        0,
        -1,
        0,
        0,
        0,
        0,
        0,
        1
      ],
      "name": "99383c29ea9348129aa8fc8c700f9d65.fbx"
    },
    {
      "children": [
        4
      ],
      "name": "RootNode"
    },
    {
      "children": [
        5,
        6
      ],
      "matrix": [
        100,
        0,
        0,
        0,
        0,
        -1.6292067939183141e-05,
        -99.999999999998678,
        0,
        0,
        99.999999999998678,
        -1.6292067939183141e-05,
        0,
        0,
        105.30692291259766,
        47.328872680664062,
        1
      ],
      "name": "Cube"
    },
    {
      "mesh": 0,
      "name": "Cube_bt_0"
    },
    {
      "mesh": 1,
      "name": "Cube_OL_0"
    }
  ],
  "samplers": [
    {
      "magFilter": 9729,
      "minFilter": 9987,
      "wrapS": 10497,
      "wrapT": 10497
    }
  ],
  "scene": 0,
  "scenes": [
    {
      "name": "OSG_Scene",
      "nodes": [
        0
      ]
    }
  ],
  "textures": [
    {
      "sampler": 0,
      "source": 0
    }
  ]
}

