{
  "accessors": [
    {
      "bufferView": 1,
      "componentType": 5126,
      "count": 65532,
      "max": [
        -174.99620056152344,
        -127.2669677734375,
        207.05752563476562
      ],
      "min": [
        -322.53155517578125,
        -273.69683837890625,
        56.565898895263672
      ],
      "type": "VEC3"
    },
    {
      "bufferView": 1,
      "byteOffset": 786384,
      "componentType": 5126,
      "count": 65532,
      "max": [
        0.99993753433227539,
        0.99784374237060547,
        1
      ],
      "min": [
        -0.99980270862579346,
        -0.99795746803283691,
        -1
      ],
      "type": "VEC3"
    },
    {
      "bufferView": 0,
      "componentType": 5125,
      "count": 324738,
      "max": [
        65531
      ],
      "min": [
        0
      ],
      "type": "SCALAR"
    },
    {
      "bufferView": 1,
      "byteOffset": 1572768,
      "componentType": 5126,
      "count": 65532,
      "max": [
        -175.12953186035156,
        -126.2230224609375,
        207.05752563476562
      ],
      "min": [
        -322.48312377929688,
        -273.7216796875,
        56.124011993408203
      ],
      "type": "VEC3"
    },
    {
      "bufferView": 1,
      "byteOffset": 2359152,
      "componentType": 5126,
      "count": 65532,
      "max": [
        0.99727761745452881,
        0.99966627359390259,
        1
      ],
      "min": [
        -0.99886202812194824,
        -0.99932610988616943,
        -0.99596595764160156
      ],
      "type": "VEC3"
    },
    {
      "bufferView": 0,
      "byteOffset": 1298952,
      "componentType": 5125,
      "count": 272520,
      "max": [
        65531
      ],
      "min": [
        0
      ],
      "type": "SCALAR"
    },
    {
      "bufferView": 1,
      "byteOffset": 3145536,
      "componentType": 5126,
      "count": 65532,
      "max": [
        -177.49609375,
        -129.83245849609375,
        206.61293029785156
      ],
      "min": [
        -320.0216064453125,
        -271.17724609375,
        56.142040252685547
      ],
      "type": "VEC3"
    },
    {
      "bufferView": 1,
      "byteOffset": 3931920,
      "componentType": 5126,
      "count": 65532,
      "max": [
        0.9991651177406311,
        0.99340194463729858,
        0.859619140625
      ],
      "min": [
        -0.99990534782409668,
        -0.99981826543807983,
        -0.99607396125793457
      ],
      "type": "VEC3"
    },
    {
      "bufferView": 0,
      "byteOffset": 2389032,
      "componentType": 5125,
      "count": 299850,
      "max": [
        65531
      ],
      "min": [
        0
      ],
      "type": "SCALAR"
    },
    {
      "bufferView": 1,
      "byteOffset": 4718304,
      "componentType": 5126,
      "count": 65532,
      "max": [
        -175.01498413085938,
        -126.2542724609375,
        207.05752563476562
      ],
      "min": [
        -322.52609252929688,
        -273.7216796875,
        56.142040252685547
      ],
      "type": "VEC3"
    },
    {
      "bufferView": 1,
      "byteOffset": 5504688,
      "componentType": 5126,
      "count": 65532,
      "max": [
        0.99972450733184814,
        0.99987387657165527,
        0.99501001834869385
      ],
      "min": [
        -0.99992662668228149,
        -0.99960863590240479,
        -0.9999958872795105
      ],
      "type": "VEC3"
    },
    {
      "bufferView": 0,
      "byteOffset": 3588432,
      "componentType": 5125,
      "count": 245697,
      "max": [
        65531
      ],
      "min": [
        0
      ],
      "type": "SCALAR"
    },
    {
      "bufferView": 1,
      "byteOffset": 6291072,
      "componentType": 5126,
      "count": 33210,
      "max": [
        -175.08966064453125,
        -126.28154754638672,
        207.05752563476562
      ],
      "min": [
        -322.19171142578125,
        -273.64825439453125,
        56.124011993408203
      ],
      "type": "VEC3"
    },
    {
      "bufferView": 1,
      "byteOffset": 6689592,
      "componentType": 5126,
      "count": 33210,
      "max": [
        0.99986517429351807,
        0.99885129928588867,
        1
      ],
      "min": [
        -0.99999469518661499,
        -0.99997043609619141,
        -1
      ],
      "type": "VEC3"
    },
    {
      "bufferView": 0,
      "byteOffset": 4571220,
      "componentType": 5125,
      "count": 83739,
      "max": [
        33209
      ],
      "min": [
        0
      ],
      "type": "SCALAR"
    }
  ],
  "asset": {
    "extras": {
      "author": "volatil (https://sketchfab.com/volatil)",
      "license": "CC-BY-4.0 (http://creativecommons.org/licenses/by/4.0/)",
      "source": "https://sketchfab.com/3d-models/office-mood-lamp-skin-2a380466f21a4f66a94d7dc58219dc45",
      "title": "Office Mood Lamp - Skin"
    },
    "generator": "Sketchfab-8.20.0",
    "version": "2.0"
  },
  "bufferViews": [
    {
      "buffer": 0,
      "byteLength": 4906176,
      "byteOffset": 0,
      "name": "floatBufferViews",
      "target": 34963
    },
    {
      "buffer": 0,
      "byteLength": 7088112,
      "byteOffset": 4906176,
      "byteStride": 12,
      "name": "floatBufferViews",
      "target": 34962
    }
  ],
  "buffers": [
    {
      "byteLength": 11994288,
      "uri": "scene.bin"
    }
  ],
  "materials": [
    {
      "doubleSided": true,
      "name": "Scene_-_Root",
      "pbrMetallicRoughness": {
        "baseColorFactor": [
          1,
          1,
          1,
          1
        ],
        "metallicFactor": 0,
        "roughnessFactor": 0.59999999999999998
      }
    }
  ],
  "meshes": [
    {
      "primitives": [
        {
          "attributes": {
            "NORMAL": 1,
            "POSITION": 0
          },
          "indices": 2,
          "material": 0,
          "mode": 4
        }
      ]
    },
    {
      "primitives": [
        {
          "attributes": {
            "NORMAL": 4,
            "POSITION": 3
          },
          "indices": 5,
          "material": 0,
          "mode": 4
        }
      ]
    },
    {
      "primitives": [
        {
          "attributes": {
            "NORMAL": 7,
            "POSITION": 6
          },
          "indices": 8,
          "material": 0,
          "mode": 4
        }
      ]
    },
    {
      "primitives": [
        {
          "attributes": {
            "NORMAL": 10,
            "POSITION": 9
          },
          "indices": 11,
          "material": 0,
          "mode": 4
        }
      ]
    },
    {
      "primitives": [
        {
          "attributes": {
            "NORMAL": 13,
            "POSITION": 12
          },
          "indices": 14,
          "material": 0,
          "mode": 4
        }
      ]
    }
  ],
  "nodes": [
    {
      "children": [
        1
      ],
      "name": "RootNode (gltf orientation matrix)",
      "rotation": [
        -0.70710678118654746,
        -0,
        -0,
        0.70710678118654757
      ]
    },
    {
      "children": [
        2
      ],
      "name": "RootNode (model correction matrix)"
    },
    {
      "children": [
        3,
        4,
        5,
        6,
        7
      ],
      "name": "skin.stl.cleaner.materialmerger.gles"
    },
    {
      "mesh": 0,
      "name": ""
    },
    {
      "mesh": 1,
      "name": ""
    },
    {
      "mesh": 2,
      "name": ""
    },
    {
      "mesh": 3,
      "name": ""
    },
    {
      "mesh": 4,
      "name": ""
    }
  ],
  "scene": 0,
  "scenes": [
    {
      "name": "OSG_Scene",
      "nodes": [
        0
      ]
    }
  ]
}

