{
    "asset" : {
        "generator" : "Khronos glTF Blender I/O v1.1.45",
        "version" : "2.0"
    },
    "scene" : 0,
    "scenes" : [
        {
            "name" : "Scene",
            "nodes" : [
                0,
                1,
                2,
                3,
                4,
                5,
                6,
                7,
                8,
                9,
                10,
                11
            ]
        }
    ],
    "nodes" : [
        {
            "name" : "Light",
            "rotation" : [
                0.16907575726509094,
                0.7558803558349609,
                -0.27217137813568115,
                0.570947527885437
            ],
            "translation" : [
                4.076245307922363,
                5.903861999511719,
                -1.0054539442062378
            ]
        },
        {
            "name" : "Camera",
            "rotation" : [
                0.483536034822464,
                0.33687159419059753,
                -0.20870360732078552,
                0.7804827094078064
            ],
            "translation" : [
                7.358891487121582,
                4.958309173583984,
                6.925790786743164
            ]
        },
        {
            "name" : "CINEMA_4D_Editor",
            "rotation" : [
                0.21957528591156006,
                -0.6031677722930908,
                0.7459579706192017,
                0.1775444746017456
            ],
            "scale" : [
                0.009999999776482582,
                0.009999999776482582,
                0.009999999776482582
            ],
            "translation" : [
                6.313128471374512,
                6.27800178527832,
                26.391496658325195
            ]
        },
        {
            "mesh" : 0,
            "name" : "Object183_8",
            "rotation" : [
                0,
                0.34621167182922363,
                0,
                0.9381564259529114
            ],
            "scale" : [
                0.029999997466802597,
                0.029999999329447746,
                0.029999997466802597
            ],
            "translation" : [
                -2.4913339614868164,
                0.18148095905780792,
                13.166227340698242
            ]
        },
        {
            "mesh" : 1,
            "name" : "Object183_6",
            "rotation" : [
                0,
                0.5984428524971008,
                0,
                0.8011655211448669
            ],
            "scale" : [
                0.03999999910593033,
                0.03999999910593033,
                0.03999999910593033
            ],
            "translation" : [
                -2.8380606174468994,
                0.8306909799575806,
                10.225722312927246
            ]
        },
        {
            "mesh" : 2,
            "name" : "Object183_5",
            "rotation" : [
                0,
                -0.4962329566478729,
                0,
                0.8681893944740295
            ],
            "scale" : [
                0.04999999701976776,
                0.04999999701976776,
                0.04999999701976776
            ],
            "translation" : [
                -2.558830738067627,
                0.298297256231308,
                10.314388275146484
            ]
        },
        {
            "mesh" : 3,
            "name" : "Object183_7",
            "rotation" : [
                0.6536772847175598,
                -0.653677225112915,
                -0.26964056491851807,
                0.26964056491851807
            ],
            "scale" : [
                0.03999999910593033,
                0.03999999910593033,
                0.05000000074505806
            ],
            "translation" : [
                -3.1117165088653564,
                1.6690057516098022,
                10.3646240234375
            ]
        },
        {
            "mesh" : 4,
            "name" : "Object183_4",
            "rotation" : [
                0.16896215081214905,
                -0.17314191162586212,
                -0.6776692867279053,
                0.6944335699081421
            ],
            "scale" : [
                0.05809999629855156,
                0.04999999329447746,
                0.06430000066757202
            ],
            "translation" : [
                -3.4236416816711426,
                1.4730840921401978,
                11.923593521118164
            ]
        },
        {
            "mesh" : 5,
            "name" : "Object183_3",
            "rotation" : [
                0,
                0.7071068286895752,
                0,
                0.7071067094802856
            ],
            "scale" : [
                0.05809999629855156,
                0.04999999701976776,
                0.06429999321699142
            ],
            "translation" : [
                -3.432772636413574,
                0.297007292509079,
                11.941324234008789
            ]
        },
        {
            "mesh" : 6,
            "name" : "Object183_6_2",
            "rotation" : [
                0.4120790362358093,
                0.41207900643348694,
                0.574622392654419,
                0.574622392654419
            ],
            "scale" : [
                0.04999999701976776,
                0.04999999329447746,
                0.04999999329447746
            ],
            "translation" : [
                -1.4719436168670654,
                2.835191249847412,
                12.390192985534668
            ]
        },
        {
            "mesh" : 7,
            "name" : "Object183_7_2",
            "rotation" : [
                0,
                0.2672383785247803,
                0,
                0.9636304378509521
            ],
            "scale" : [
                0.05000000074505806,
                0.04999999701976776,
                0.05000000074505806
            ],
            "translation" : [
                -1.2637304067611694,
                1.1289660930633545,
                12.311511993408203
            ]
        },
        {
            "mesh" : 8,
            "name" : "Object183",
            "rotation" : [
                0,
                0.5150380730628967,
                0,
                0.8571673035621643
            ],
            "scale" : [
                0.07000000029802322,
                0.07000000029802322,
                0.07000000029802322
            ],
            "translation" : [
                -1.012858271598816,
                0.4175051152706146,
                11.975234985351562
            ]
        }
    ],
    "animations" : [
        {
            "channels" : [
                {
                    "sampler" : 0,
                    "target" : {
                        "node" : 9,
                        "path" : "translation"
                    }
                },
                {
                    "sampler" : 1,
                    "target" : {
                        "node" : 9,
                        "path" : "rotation"
                    }
                },
                {
                    "sampler" : 2,
                    "target" : {
                        "node" : 9,
                        "path" : "scale"
                    }
                }
            ],
            "name" : "Object183_6_2|CINEMA_4D_Main|Layer0",
            "samplers" : [
                {
                    "input" : 28,
                    "interpolation" : "LINEAR",
                    "output" : 29
                },
                {
                    "input" : 28,
                    "interpolation" : "LINEAR",
                    "output" : 30
                },
                {
                    "input" : 28,
                    "interpolation" : "LINEAR",
                    "output" : 31
                }
            ]
        }
    ],
    "meshes" : [
        {
            "name" : "Mesh",
            "primitives" : [
                {
                    "attributes" : {
                        "POSITION" : 0,
                        "NORMAL" : 1,
                        "TEXCOORD_0" : 2
                    },
                    "indices" : 3
                }
            ]
        },
        {
            "name" : "Mesh.001",
            "primitives" : [
                {
                    "attributes" : {
                        "POSITION" : 4,
                        "NORMAL" : 5,
                        "TEXCOORD_0" : 6
                    },
                    "indices" : 3
                }
            ]
        },
        {
            "name" : "Mesh.002",
            "primitives" : [
                {
                    "attributes" : {
                        "POSITION" : 7,
                        "NORMAL" : 8,
                        "TEXCOORD_0" : 9
                    },
                    "indices" : 3
                }
            ]
        },
        {
            "name" : "Mesh.003",
            "primitives" : [
                {
                    "attributes" : {
                        "POSITION" : 10,
                        "NORMAL" : 11,
                        "TEXCOORD_0" : 12
                    },
                    "indices" : 3
                }
            ]
        },
        {
            "name" : "Mesh.004",
            "primitives" : [
                {
                    "attributes" : {
                        "POSITION" : 13,
                        "NORMAL" : 14,
                        "TEXCOORD_0" : 15
                    },
                    "indices" : 3
                }
            ]
        },
        {
            "name" : "Mesh.005",
            "primitives" : [
                {
                    "attributes" : {
                        "POSITION" : 16,
                        "NORMAL" : 17,
                        "TEXCOORD_0" : 18
                    },
                    "indices" : 3
                }
            ]
        },
        {
            "name" : "Mesh.006",
            "primitives" : [
                {
                    "attributes" : {
                        "POSITION" : 19,
                        "NORMAL" : 20,
                        "TEXCOORD_0" : 21
                    },
                    "indices" : 3
                }
            ]
        },
        {
            "name" : "Mesh.007",
            "primitives" : [
                {
                    "attributes" : {
                        "POSITION" : 22,
                        "NORMAL" : 23,
                        "TEXCOORD_0" : 24
                    },
                    "indices" : 3
                }
            ]
        },
        {
            "name" : "Mesh.008",
            "primitives" : [
                {
                    "attributes" : {
                        "POSITION" : 25,
                        "NORMAL" : 26,
                        "TEXCOORD_0" : 27
                    },
                    "indices" : 3
                }
            ]
        }
    ],
    "accessors" : [
        {
            "bufferView" : 0,
            "componentType" : 5126,
            "count" : 1795,
            "max" : [
                15.198907852172852,
                5.884384632110596,
                10.252808570861816
            ],
            "min" : [
                -15.198905944824219,
                -5.922488212585449,
                -10.259354591369629
            ],
            "type" : "VEC3"
        },
        {
            "bufferView" : 1,
            "componentType" : 5126,
            "count" : 1795,
            "type" : "VEC3"
        },
        {
            "bufferView" : 2,
            "componentType" : 5126,
            "count" : 1795,
            "type" : "VEC2"
        },
        {
            "bufferView" : 3,
            "componentType" : 5123,
            "count" : 4476,
            "type" : "SCALAR"
        },
        {
            "bufferView" : 4,
            "componentType" : 5126,
            "count" : 1795,
            "max" : [
                15.198907852172852,
                5.884384632110596,
                10.252808570861816
            ],
            "min" : [
                -15.198905944824219,
                -5.922488212585449,
                -10.259354591369629
            ],
            "type" : "VEC3"
        },
        {
            "bufferView" : 5,
            "componentType" : 5126,
            "count" : 1795,
            "type" : "VEC3"
        },
        {
            "bufferView" : 6,
            "componentType" : 5126,
            "count" : 1795,
            "type" : "VEC2"
        },
        {
            "bufferView" : 7,
            "componentType" : 5126,
            "count" : 1795,
            "max" : [
                15.198907852172852,
                5.884384632110596,
                10.252808570861816
            ],
            "min" : [
                -15.198905944824219,
                -5.922488212585449,
                -10.259354591369629
            ],
            "type" : "VEC3"
        },
        {
            "bufferView" : 8,
            "componentType" : 5126,
            "count" : 1795,
            "type" : "VEC3"
        },
        {
            "bufferView" : 9,
            "componentType" : 5126,
            "count" : 1795,
            "type" : "VEC2"
        },
        {
            "bufferView" : 10,
            "componentType" : 5126,
            "count" : 1795,
            "max" : [
                15.198907852172852,
                5.884384632110596,
                10.252808570861816
            ],
            "min" : [
                -15.198905944824219,
                -5.922488212585449,
                -10.259354591369629
            ],
            "type" : "VEC3"
        },
        {
            "bufferView" : 11,
            "componentType" : 5126,
            "count" : 1795,
            "type" : "VEC3"
        },
        {
            "bufferView" : 12,
            "componentType" : 5126,
            "count" : 1795,
            "type" : "VEC2"
        },
        {
            "bufferView" : 13,
            "componentType" : 5126,
            "count" : 1795,
            "max" : [
                15.198907852172852,
                5.884384632110596,
                10.252808570861816
            ],
            "min" : [
                -15.198905944824219,
                -5.922488212585449,
                -10.259354591369629
            ],
            "type" : "VEC3"
        },
        {
            "bufferView" : 14,
            "componentType" : 5126,
            "count" : 1795,
            "type" : "VEC3"
        },
        {
            "bufferView" : 15,
            "componentType" : 5126,
            "count" : 1795,
            "type" : "VEC2"
        },
        {
            "bufferView" : 16,
            "componentType" : 5126,
            "count" : 1795,
            "max" : [
                15.198907852172852,
                5.884384632110596,
                10.252808570861816
            ],
            "min" : [
                -15.198905944824219,
                -5.922488212585449,
                -10.259354591369629
            ],
            "type" : "VEC3"
        },
        {
            "bufferView" : 17,
            "componentType" : 5126,
            "count" : 1795,
            "type" : "VEC3"
        },
        {
            "bufferView" : 18,
            "componentType" : 5126,
            "count" : 1795,
            "type" : "VEC2"
        },
        {
            "bufferView" : 19,
            "componentType" : 5126,
            "count" : 1795,
            "max" : [
                15.198907852172852,
                5.884384632110596,
                10.252808570861816
            ],
            "min" : [
                -15.198905944824219,
                -5.922488212585449,
                -10.259354591369629
            ],
            "type" : "VEC3"
        },
        {
            "bufferView" : 20,
            "componentType" : 5126,
            "count" : 1795,
            "type" : "VEC3"
        },
        {
            "bufferView" : 21,
            "componentType" : 5126,
            "count" : 1795,
            "type" : "VEC2"
        },
        {
            "bufferView" : 22,
            "componentType" : 5126,
            "count" : 1795,
            "max" : [
                15.198907852172852,
                5.884384632110596,
                10.252808570861816
            ],
            "min" : [
                -15.198905944824219,
                -5.922488212585449,
                -10.259354591369629
            ],
            "type" : "VEC3"
        },
        {
            "bufferView" : 23,
            "componentType" : 5126,
            "count" : 1795,
            "type" : "VEC3"
        },
        {
            "bufferView" : 24,
            "componentType" : 5126,
            "count" : 1795,
            "type" : "VEC2"
        },
        {
            "bufferView" : 25,
            "componentType" : 5126,
            "count" : 1795,
            "max" : [
                15.198907852172852,
                5.884384632110596,
                10.252808570861816
            ],
            "min" : [
                -15.198905944824219,
                -5.922488212585449,
                -10.259354591369629
            ],
            "type" : "VEC3"
        },
        {
            "bufferView" : 26,
            "componentType" : 5126,
            "count" : 1795,
            "type" : "VEC3"
        },
        {
            "bufferView" : 27,
            "componentType" : 5126,
            "count" : 1795,
            "type" : "VEC2"
        },
        {
            "bufferView" : 28,
            "componentType" : 5126,
            "count" : 166,
            "max" : [
                6.64
            ],
            "min" : [
                0.04
            ],
            "type" : "SCALAR"
        },
        {
            "bufferView" : 29,
            "componentType" : 5126,
            "count" : 166,
            "type" : "VEC3"
        },
        {
            "bufferView" : 30,
            "componentType" : 5126,
            "count" : 166,
            "type" : "VEC4"
        },
        {
            "bufferView" : 31,
            "componentType" : 5126,
            "count" : 166,
            "type" : "VEC3"
        }
    ],
    "bufferViews" : [
        {
            "buffer" : 0,
            "byteLength" : 21540,
            "byteOffset" : 0
        },
        {
            "buffer" : 0,
            "byteLength" : 21540,
            "byteOffset" : 21540
        },
        {
            "buffer" : 0,
            "byteLength" : 14360,
            "byteOffset" : 43080
        },
        {
            "buffer" : 0,
            "byteLength" : 8952,
            "byteOffset" : 57440
        },
        {
            "buffer" : 0,
            "byteLength" : 21540,
            "byteOffset" : 66392
        },
        {
            "buffer" : 0,
            "byteLength" : 21540,
            "byteOffset" : 87932
        },
        {
            "buffer" : 0,
            "byteLength" : 14360,
            "byteOffset" : 109472
        },
        {
            "buffer" : 0,
            "byteLength" : 21540,
            "byteOffset" : 123832
        },
        {
            "buffer" : 0,
            "byteLength" : 21540,
            "byteOffset" : 145372
        },
        {
            "buffer" : 0,
            "byteLength" : 14360,
            "byteOffset" : 166912
        },
        {
            "buffer" : 0,
            "byteLength" : 21540,
            "byteOffset" : 181272
        },
        {
            "buffer" : 0,
            "byteLength" : 21540,
            "byteOffset" : 202812
        },
        {
            "buffer" : 0,
            "byteLength" : 14360,
            "byteOffset" : 224352
        },
        {
            "buffer" : 0,
            "byteLength" : 21540,
            "byteOffset" : 238712
        },
        {
            "buffer" : 0,
            "byteLength" : 21540,
            "byteOffset" : 260252
        },
        {
            "buffer" : 0,
            "byteLength" : 14360,
            "byteOffset" : 281792
        },
        {
            "buffer" : 0,
            "byteLength" : 21540,
            "byteOffset" : 296152
        },
        {
            "buffer" : 0,
            "byteLength" : 21540,
            "byteOffset" : 317692
        },
        {
            "buffer" : 0,
            "byteLength" : 14360,
            "byteOffset" : 339232
        },
        {
            "buffer" : 0,
            "byteLength" : 21540,
            "byteOffset" : 353592
        },
        {
            "buffer" : 0,
            "byteLength" : 21540,
            "byteOffset" : 375132
        },
        {
            "buffer" : 0,
            "byteLength" : 14360,
            "byteOffset" : 396672
        },
        {
            "buffer" : 0,
            "byteLength" : 21540,
            "byteOffset" : 411032
        },
        {
            "buffer" : 0,
            "byteLength" : 21540,
            "byteOffset" : 432572
        },
        {
            "buffer" : 0,
            "byteLength" : 14360,
            "byteOffset" : 454112
        },
        {
            "buffer" : 0,
            "byteLength" : 21540,
            "byteOffset" : 468472
        },
        {
            "buffer" : 0,
            "byteLength" : 21540,
            "byteOffset" : 490012
        },
        {
            "buffer" : 0,
            "byteLength" : 14360,
            "byteOffset" : 511552
        },
        {
            "buffer" : 0,
            "byteLength" : 664,
            "byteOffset" : 525912
        },
        {
            "buffer" : 0,
            "byteLength" : 1992,
            "byteOffset" : 526576
        },
        {
            "buffer" : 0,
            "byteLength" : 2656,
            "byteOffset" : 528568
        },
        {
            "buffer" : 0,
            "byteLength" : 1992,
            "byteOffset" : 531224
        }
    ],
    "buffers" : [
        {
            "byteLength" : 533216,
            "uri" : "data:application/octet-stream;base64,"
        }
    ]
}
